<svg width="24px" height="24px" viewBox="0 0 24 24" version="1.1" xmlns="http://www.w3.org/2000/svg" xmlns:xlink="http://www.w3.org/1999/xlink">
<title>natural-gas</title>
<g id="natural-gas" stroke="none" stroke-width="1" fill="none" fill-rule="evenodd">
<path d="M7.48888889,18.915698 L7.48888889,21.9023646 L11.4711111,21.9023646 L11.4711111,18.915698 L13.4622222,18.915698 L13.4622222,21.9023646 L17.4444444,21.9023646 L17.4444444,18.915698 L19.4355556,18.915698 L19.4355556,22.8979202 C19.4355556,23.4084768 19.0512311,23.8292695 18.5561028,23.8867779 L18.44,23.8934757 L6.49333333,23.8934757 C5.98277676,23.8934757 5.56198398,23.5091513 5.50447561,23.014023 L5.49777778,22.8979202 L5.49777778,18.915698 L7.48888889,18.915698 Z M12.4879799,0.000433385511 C12.6650083,0.00780167204 12.822343,0.108292355 12.9048141,0.260358995 L12.9395556,0.340497966 L14.7476089,5.7661513 L17.0856711,4.58392908 C17.2932767,4.47894057 17.5459147,4.5317522 17.69408,4.7111113 C18.8870044,6.15466686 19.9333333,8.83793797 19.9333333,10.4534757 C19.9333333,14.323698 16.9327289,16.9245869 12.4666667,16.9245869 C8.00060444,16.9245869 5,14.323698 5,10.4534757 C5,9.17891574 5.672,6.8211913 6.57086222,5.5735113 C6.70813174,5.38297544 6.956457,5.31726193 7.16627684,5.40495357 L7.24286222,5.44508463 L9.25376,6.73121797 L12.0097067,0.301795744 C12.0910932,0.111779765 12.2814467,-0.00816294877 12.4879799,0.000433385511 Z M11.0195,7.7 L9.8675,7.7 L9.8675,14 L11.0195,14 L11.0195,9.572 L13.9805,14 L15.1325,14 L15.1325,7.7 L13.9805,7.7 L13.9805,12.137 L11.0195,7.7 Z" id="Combined-Shape" fill="#000000" fill-rule="nonzero"></path>
</g>
</svg>