<svg id="propane-gas" stroke="none" stroke-width="1" fill="none" fill-rule="evenodd">
<path d="M16.5238095,20.8921289 L16.5238095,22.987367 L8.14285714,22.987367 L8.14285714,20.8921289 L16.5238095,20.8921289 Z M19.666,12.5102241 L19.6666667,16.8445098 C19.6666667,18.5013641 18.3235209,19.8445098 16.6666667,19.8445098 L8,19.8445098 C6.34314575,19.8445098 5,18.5013641 5,16.8445098 L5,12.5102241 L19.666,12.5102241 Z M15.3687211,1.26529369 L15.368,4.12929369 L16.6666667,4.13022411 C18.3235209,4.13022411 19.6666667,5.47336986 19.6666667,7.13022411 L19.666,11.4632241 L5,11.4632241 L5,7.13022411 C5,5.47336986 6.34314575,4.13022411 8,4.13022411 L9.05,4.12929369 L9.05005747,1.26529369 L15.3687211,1.26529369 Z M14.3206667,2.31260506 L10.0966667,2.31260506 L10.097,4.12929369 L11.809,4.12929369 L11.8095238,3.3285838 L12.8571429,3.3285838 L12.857,4.12929369 L14.321,4.12929369 L14.3206667,2.31260506 Z" id="Combined-Shape" fill="#000000"></path>
</svg>