<svg width="18px" height="25px" viewBox="0 0 18 25" version="1.1" xmlns:xlink="http://www.w3.org/1999/xlink" xmlns="http://www.w3.org/2000/svg">
<g id="Group" transform="translate(0.5 0.5)">
<path d="M8.44444 16.8889C13.1082 16.8889 16.8889 13.1082 16.8889 8.44444C16.8889 3.78071 13.1082 0 8.44444 0C3.78071 0 0 3.78071 0 8.44444C0 13.1082 3.78071 16.8889 8.44444 16.8889Z" id="Oval" fill="none" fill-rule="evenodd" stroke="#000000" stroke-width="1"></path>
<path d="M4.88889 9.77778C7.58895 9.77778 9.77778 7.58895 9.77778 4.88889C9.77778 2.18883 7.58895 0 4.88889 0C2.18883 0 0 2.18883 0 4.88889C0 7.58895 2.18883 9.77778 4.88889 9.77778Z" transform="translate(3.555664 3.5546875)" id="Oval-Copy" fill="none" fill-rule="evenodd" stroke="#000000" stroke-width="1"></path>
<path d="M0 0L0 7.25225L3.77805 5.42712L8 7.25225L8 0" transform="translate(4.475586 15.8984375)" id="Path-47" fill="none" fill-rule="evenodd" stroke="#000000" stroke-width="1"></path>
</g>
</svg>